<svg xmlns="http://www.w3.org/2000/svg" version="1.1" xmlns:xlink="http://www.w3.org/1999/xlink" xmlns:svgjs="http://svgjs.dev/svgjs" width="1500" height="136" viewBox="0 0 1500 136"><g transform="matrix(1,0,0,1,-0.9090909090909918,0.5093150889255469)"><svg viewBox="0 0 396 36" data-background-color="#fff" preserveAspectRatio="xMidYMid meet" height="136" width="1500" xmlns="http://www.w3.org/2000/svg" xmlns:xlink="http://www.w3.org/1999/xlink"><g id="tight-bounds" transform="matrix(1,0,0,1,0.2400000000000091,-0.13481870000970275)"><svg viewBox="0 0 395.52 36.26963740001939" height="36.26963740001939" width="395.52"><g><svg viewBox="0 0 532.4525570884771 48.82650985616957" height="36.26963740001939" width="395.52"><g><rect width="3.186125215475791" height="42.39639061317183" x="125.40578994767196" y="3.2150596214988703" fill="#ff642f" opacity="1" stroke-width="0" stroke="transparent" fill-opacity="1" class="rect-qz-0" data-fill-palette-color="primary" rx="1%" id="qz-0" data-palette-color="#ff642f"></rect></g><g transform="matrix(1,0,0,1,136.93255708847704,6.748092172596522)"><svg viewBox="0 0 395.52 35.33032551097653" height="35.33032551097653" width="395.52"><g id="textblocktransform"><svg viewBox="0 0 395.52 35.33032551097653" height="35.33032551097653" width="395.52" id="textblock"><g><svg viewBox="0 0 395.52 35.33032551097653" height="35.33032551097653" width="395.52"><g transform="matrix(1,0,0,1,0,0)"><svg width="395.52" viewBox="0.5 -28.75 330.22 29.5" height="35.33032551097653" data-palette-color="#ff642f"><path d="M26.35 0L21.9 0 19.55-6.75 7.05-6.75 4.65 0 0.5 0 11-28 15.9-28 26.35 0ZM13.4-24.7L8.15-9.95 18.45-9.95 13.4-24.7ZM30.45-28L34.55-28 34.55-8.75Q34.55-5.9 36.07-4.25 37.6-2.6 41.15-2.6L41.15-2.6Q44.7-2.6 46.25-4.25 47.8-5.9 47.8-8.75L47.8-8.75 47.8-28 51.75-28 51.75-9.05Q51.75-4.65 49-1.95 46.25 0.75 41.1 0.75L41.1 0.75Q36 0.75 33.22-1.95 30.45-4.65 30.45-9.05L30.45-9.05 30.45-28ZM77.84-28L77.84-24.45 69.55-24.45 69.55 0 65.45 0 65.45-24.45 57.25-24.45 57.25-28 77.84-28ZM81.84-14L81.84-14Q81.84-17.9 82.89-20.7 83.94-23.5 85.69-25.3 87.44-27.1 89.72-27.93 91.99-28.75 94.39-28.75L94.39-28.75Q96.79-28.75 99.07-27.93 101.34-27.1 103.09-25.3 104.84-23.5 105.89-20.7 106.94-17.9 106.94-14L106.94-14Q106.94-10.1 105.89-7.3 104.84-4.5 103.07-2.7 101.29-0.9 99.04-0.08 96.79 0.75 94.39 0.75L94.39 0.75Q91.99 0.75 89.74-0.08 87.49-0.9 85.72-2.7 83.94-4.5 82.89-7.3 81.84-10.1 81.84-14ZM86.04-14L86.04-14Q86.04-8.3 88.27-5.43 90.49-2.55 94.39-2.55L94.39-2.55Q98.29-2.55 100.52-5.43 102.74-8.3 102.74-14L102.74-14Q102.74-19.7 100.52-22.6 98.29-25.5 94.39-25.5L94.39-25.5Q90.49-25.5 88.27-22.63 86.04-19.75 86.04-14ZM149.89-24L146.94-22.2Q145.94-23.85 144.59-24.75 143.24-25.65 140.99-25.65L140.99-25.65Q139.64-25.65 138.24-25.13 136.84-24.6 135.69-23.28 134.54-21.95 133.81-19.7 133.09-17.45 133.09-14L133.09-14Q133.09-10.7 133.71-8.47 134.34-6.25 135.39-4.9 136.44-3.55 137.76-2.98 139.09-2.4 140.44-2.4L140.44-2.4Q142.59-2.4 144.16-3.53 145.74-4.65 146.74-6.05L146.74-6.05 146.74-12.3 140.84-12.3 140.84-15.45 150.34-15.45 150.34 0 147.54 0 147.29-2.8Q146.34-1.25 144.44-0.25 142.54 0.75 140.34 0.75L140.34 0.75Q138.29 0.75 136.26 0 134.24-0.75 132.61-2.5 130.99-4.25 129.96-7.05 128.94-9.85 128.94-14L128.94-14Q128.94-18.3 130.09-21.15 131.24-24 133.01-25.68 134.79-27.35 136.91-28.05 139.04-28.75 140.94-28.75L140.94-28.75Q142.64-28.75 144.04-28.35 145.44-27.95 146.56-27.3 147.69-26.65 148.51-25.78 149.34-24.9 149.89-24L149.89-24ZM158.44-28L162.53-28 162.53-8.75Q162.53-5.9 164.06-4.25 165.59-2.6 169.13-2.6L169.13-2.6Q172.69-2.6 174.24-4.25 175.78-5.9 175.78-8.75L175.78-8.75 175.78-28 179.74-28 179.74-9.05Q179.74-4.65 176.99-1.95 174.24 0.75 169.09 0.75L169.09 0.75Q163.99 0.75 161.21-1.95 158.44-4.65 158.44-9.05L158.44-9.05 158.44-28ZM209.68 0L205.23 0 202.88-6.75 190.38-6.75 187.98 0 183.83 0 194.33-28 199.23-28 209.68 0ZM196.73-24.7L191.48-9.95 201.78-9.95 196.73-24.7ZM236.13 0L231.33 0 224.03-10.3 218.73-10.3 218.73 0 214.68 0 214.68-28 222.13-28Q224.68-28 226.78-27.5 228.88-27 230.38-25.9 231.88-24.8 232.73-23.13 233.58-21.45 233.58-19.15L233.58-19.15Q233.58-15.65 232.03-13.75 230.48-11.85 228.08-11L228.08-11 236.13 0ZM222.23-24.9L218.73-24.9 218.73-13.4 222.03-13.4Q225.78-13.4 227.61-14.73 229.43-16.05 229.43-19.15L229.43-19.15Q229.43-22.1 227.61-23.5 225.78-24.9 222.23-24.9L222.23-24.9ZM241.38-28L248.63-28Q251.13-28 253.65-27.4 256.18-26.8 258.2-25.23 260.23-23.65 261.5-20.93 262.78-18.2 262.78-14L262.78-14Q262.78-9.8 261.38-7.08 259.98-4.35 257.88-2.78 255.78-1.2 253.28-0.6 250.78 0 248.58 0L248.58 0 241.38 0 241.38-28ZM248.73-24.95L245.43-24.95 245.43-3.15 248.78-3.15Q250.63-3.15 252.43-3.6 254.23-4.05 255.63-5.25 257.03-6.45 257.88-8.55 258.73-10.65 258.73-14L258.73-14Q258.73-17.35 257.83-19.48 256.93-21.6 255.48-22.83 254.03-24.05 252.25-24.5 250.48-24.95 248.73-24.95L248.73-24.95ZM270.77-28L274.88-28 274.88 0 270.77 0 270.77-28ZM305.72 0L301.27 0 298.92-6.75 286.42-6.75 284.02 0 279.87 0 290.37-28 295.27-28 305.72 0ZM292.77-24.7L287.52-9.95 297.82-9.95 292.77-24.7ZM326.97-28L330.72-28 330.72 0 324.92 0 314.57-23.4 314.57 0 310.72 0 310.72-28 316.62-28 326.97-4.85 326.97-28Z" opacity="1" transform="matrix(1,0,0,1,0,0)" fill="#ff642f" class="wordmark-text-0" data-fill-palette-color="primary" id="text-0"></path></svg></g></svg></g></svg></g></svg></g><g><svg viewBox="0 0 117.06514802234267 48.82650985616957" height="48.82650985616957" width="117.06514802234267"><g><svg version="1.1" xmlns="http://www.w3.org/2000/svg" xmlns:xlink="http://www.w3.org/1999/xlink" x="0" y="0" viewBox="0.17100000000000004 30.103999999999996 100.00039472915411 41.709" enable-background="new 0.171 30.104 100 41.709" xml:space="preserve" width="117.06514802234267" height="48.82650985616957" class="icon-icon-0" data-fill-palette-color="accent" id="icon-0"><path d="M100.03 61.508c-0.251-0.489-0.532-1.037-0.839-1.619 0.259-0.271 0.42-0.639 0.42-1.043 0-0.839-0.681-1.52-1.519-1.52h-0.306c-0.11-0.191-0.22-0.382-0.332-0.575-1.97-3.363-4.429-6.67-7.975-10.722-5.376-6.145-9.931-9.954-14.773-12.353-4.989-2.471-10.492-3.572-17.843-3.572-3.737 0-7.815 0.198-12.317 1.637-5.864 1.874-10.799 5.436-14.665 10.585-0.065 0.086-0.118 0.207-0.243 0.273 0 0-0.352 0.021-0.374 0.021-9.399 0.065-18.625 3.342-22.122 6.514l-0.005 0.002L5.5 50.612c-0.361 0.174-2.695 0.114-2.695 1.63v2.78c0 0.046 0.003 0.09 0.007 0.133 0 0.21 0 0.423 0.001 0.626-0.198 0.499-0.383 1.015-0.56 1.545H1.69c-0.838 0-1.519 0.681-1.519 1.52 0 0.805 0.627 1.462 1.419 1.512-0.057 0.968 0.042 1.646 0.042 1.646 1.064 0.09 1.7-0.353 1.821-1.25 0.638-4.677 5.482-7.871 10.432-7.871 5.41 0 9.908 3.979 10.72 9.164 0.086 0.552 0.964 2.688 4.525 2.688 4.659 0 35.752 0 35.752 0 2.828 0 3.154-2.101 3.233-2.632 0.788-5.213 5.3-9.222 10.729-9.222 5.047 0 9.302 3.466 10.508 8.141 0.223 0.865 0.946 2.711 5.217 2.711 2.24 0 3.805-0.248 4.388-0.357 0.174-0.012 0.347-0.055 0.513-0.139C100.102 62.914 100.354 62.141 100.03 61.508zM55.083 43.872h-0.532-3.206H33.608c-0.46 0-0.833-0.366-0.833-0.818 0-0.123 0.028-0.238 0.075-0.341 7.401-8.935 16.878-9.916 22.231-10.023L55.083 43.872 55.083 43.872zM82.008 43.872H57.655V32.681c10.472 0.119 17.304 2.659 24.809 9.722C82.555 42.489 83.862 43.872 82.008 43.872z" fill="#ff642f" data-fill-palette-color="accent"></path><circle cx="78.847" cy="63.734" r="1.7" fill="#ff642f" data-fill-palette-color="accent"></circle><path d="M78.847 55.653c-4.457 0-8.081 3.624-8.081 8.08 0 4.455 3.624 8.08 8.081 8.08 4.454 0 8.077-3.625 8.077-8.08C86.924 59.277 83.3 55.653 78.847 55.653zM78.847 68.598c-2.685 0-4.867-2.184-4.867-4.864 0-2.685 2.184-4.866 4.867-4.866 2.682 0 4.864 2.184 4.864 4.866S81.527 68.598 78.847 68.598z" fill="#ff642f" data-fill-palette-color="accent"></path><circle cx="13.886" cy="63.734" r="1.7" fill="#ff642f" data-fill-palette-color="accent"></circle><path d="M13.886 55.653c-0.696 0-1.372 0.089-2.018 0.255-3.483 0.897-6.062 4.064-6.062 7.825 0 3.758 2.58 6.926 6.062 7.825 0.646 0.166 1.322 0.255 2.018 0.255 4.455 0 8.081-3.625 8.081-8.08C21.966 59.277 18.341 55.653 13.886 55.653zM9.021 63.733c0-2.685 2.183-4.866 4.864-4.866 2.683 0 4.866 2.184 4.866 4.866s-2.183 4.864-4.866 4.864C11.204 68.598 9.021 66.416 9.021 63.733z" fill="#ff642f" data-fill-palette-color="accent"></path></svg></g></svg></g></svg></g><defs></defs></svg><rect width="395.52" height="36.26963740001939" fill="none" stroke="none" visibility="hidden"></rect></g></svg></g></svg>